<svg xmlns="http://www.w3.org/2000/svg" width="220" height="220" viewBox="0 0 220 220">
  <rect width="220" height="220" fill="#ffffff"/>
  <rect x="20" y="20" width="60" height="60" fill="#0f9d6e"/>
  <rect x="40" y="40" width="20" height="20" fill="#ffffff"/>
  <rect x="140" y="20" width="60" height="60" fill="#0f9d6e"/>
  <rect x="160" y="40" width="20" height="20" fill="#ffffff"/>
  <rect x="20" y="140" width="60" height="60" fill="#0f9d6e"/>
  <rect x="40" y="160" width="20" height="20" fill="#ffffff"/>
  <rect x="90" y="90" width="40" height="40" fill="#0f9d6e"/>
  <rect x="100" y="100" width="20" height="20" fill="#ffffff"/>
  <rect x="140" y="140" width="60" height="60" fill="#5b8cff"/>
  <rect x="160" y="160" width="20" height="20" fill="#ffffff"/>
  <rect x="90" y="20" width="20" height="20" fill="#1f2937"/>
  <rect x="110" y="20" width="20" height="20" fill="#1f2937"/>
  <rect x="20" y="90" width="20" height="20" fill="#1f2937"/>
  <rect x="20" y="110" width="20" height="20" fill="#1f2937"/>
  <rect x="180" y="90" width="20" height="20" fill="#1f2937"/>
  <rect x="180" y="110" width="20" height="20" fill="#1f2937"/>
  <text x="110" y="205" text-anchor="middle" font-family="Inter, Arial, sans-serif" font-size="16" fill="#1f2937">QR Placeholder</text>
</svg>
